<?xml version="1.0" encoding="utf-8"?>
<!-- Generator: Adobe Illustrator 18.0.0, SVG Export Plug-In . SVG Version: 6.00 Build 0)  -->
<!DOCTYPE svg PUBLIC "-//W3C//DTD SVG 1.1//EN" "http://www.w3.org/Graphics/SVG/1.1/DTD/svg11.dtd">
<svg version="1.1" id="Layer_1" xmlns="http://www.w3.org/2000/svg" xmlns:xlink="http://www.w3.org/1999/xlink" x="0px" y="0px"
	 viewBox="0 0 18.4 21.7" enable-background="new 0 0 18.4 21.7" xml:space="preserve">
<path fill="#040305" d="M17.6,5.4c0-0.5-0.5-0.9-1-0.9H13l0-0.9C12.8,2.3,11.9,0,9.2,0C6.4,0,5.5,2.4,5.4,3.8v0.7H1.8
	c-0.5,0-1,0.4-1,0.9L0,20.7c0,0.3,0.1,0.5,0.3,0.7c0.2,0.2,0.5,0.3,0.7,0.3h16.4c0.3,0,0.5-0.1,0.7-0.3c0.2-0.2,0.3-0.5,0.3-0.7
	L17.6,5.4z M7.4,3.8C7.4,3.5,7.6,2,9.2,2c1.5,0,1.8,1.3,1.8,1.7v0.8H7.4L7.4,3.8z M2.1,19.7L2.7,6.4h2.7v1c0,0.6,0.4,1,1,1
	s1-0.4,1-1l0-1H11v1c0,0.6,0.4,1,1,1s1-0.4,1-1l0-1h2.7l0.7,13.3H2.1z"/>
</svg>
