<?xml version="1.0" encoding="utf-8"?>
<!-- Generator: Adobe Illustrator 18.0.0, SVG Export Plug-In . SVG Version: 6.00 Build 0)  -->
<!DOCTYPE svg PUBLIC "-//W3C//DTD SVG 1.1//EN" "http://www.w3.org/Graphics/SVG/1.1/DTD/svg11.dtd">
<svg version="1.1" id="Capa_1" xmlns="http://www.w3.org/2000/svg" xmlns:xlink="http://www.w3.org/1999/xlink" x="0px" y="0px"
	 viewBox="0 0 32.7 32.7" enable-background="new 0 0 32.7 32.7" xml:space="preserve">
<g>
	<path d="M0,0v32.7h32.7V0H0z M31.7,31.7H1V1h30.7V31.7z"/>
	<path d="M13.6,16H15v6.5c0,0.1,0.1,0.2,0.2,0.2h1.8c0.1,0,0.2-0.1,0.2-0.2V16h1.7c0.1,0,0.2-0.1,0.2-0.2l0-1.8c0-0.1,0-0.1-0.1-0.2
		c0,0-0.1-0.1-0.2-0.1h-1.7v-1c0-0.5,0.1-0.8,0.8-0.8l0.9,0c0.1,0,0.2-0.1,0.2-0.2v-1.7c0-0.1-0.1-0.2-0.2-0.2l-1.4,0
		c-1.6,0-2.6,1-2.6,2.7v1.2h-1.4c-0.1,0-0.2,0.1-0.2,0.2v1.8C13.4,15.9,13.5,16,13.6,16z"/>
</g>
</svg>
