<?xml version="1.0" encoding="utf-8"?>
<!-- Generator: Adobe Illustrator 18.0.0, SVG Export Plug-In . SVG Version: 6.00 Build 0)  -->
<!DOCTYPE svg PUBLIC "-//W3C//DTD SVG 1.1//EN" "http://www.w3.org/Graphics/SVG/1.1/DTD/svg11.dtd">
<svg version="1.1" id="Capa_1" xmlns="http://www.w3.org/2000/svg" xmlns:xlink="http://www.w3.org/1999/xlink" x="0px" y="0px"
	 viewBox="0 0 32.7 32.7" enable-background="new 0 0 32.7 32.7" xml:space="preserve">
<g>
	<path fill-rule="evenodd" clip-rule="evenodd" d="M0,0v32.7h32.7V0H0z M31.7,31.7H1V1h30.7V31.7z"/>
	<path fill-rule="evenodd" clip-rule="evenodd" d="M11.3,23.2h10.2c1,0,1.8-0.7,1.8-1.8V11.3c0-1-0.8-1.8-1.8-1.8H11.3
		c-1,0-1.8,0.7-1.8,1.8v10.2C9.5,22.4,10.3,23.2,11.3,23.2z M18.8,11.6c0-0.3,0.3-0.6,0.6-0.6H21c0.3,0,0.6,0.3,0.6,0.6v1.5
		c0,0.3-0.3,0.6-0.6,0.6h-1.5c-0.3,0-0.6-0.3-0.6-0.6V11.6z M16.3,13.6c1.5,0,2.7,1.2,2.7,2.7S17.9,19,16.3,19
		c-1.5,0-2.7-1.2-2.7-2.7S14.8,13.6,16.3,13.6z M11,15.3h1.3c-0.1,0.4-0.2,0.8-0.2,1.2c0,2.3,1.9,4.1,4.2,4.1s4.2-1.8,4.2-4.1
		c0-0.4-0.1-0.8-0.2-1.2h1.2V21c0,0.3-0.2,0.5-0.5,0.5h-9.5c-0.3,0-0.5-0.2-0.5-0.5V15.3z"/>
</g>
</svg>
