<?xml version="1.0" encoding="utf-8"?>
<!-- Generator: Adobe Illustrator 19.1.1, SVG Export Plug-In . SVG Version: 6.00 Build 0)  -->
<svg version="1.1" id="Layer_1" xmlns="http://www.w3.org/2000/svg" xmlns:xlink="http://www.w3.org/1999/xlink" x="0px" y="0px"
	 viewBox="0 0 179.3 51" style="enable-background:new 0 0 179.3 51;" xml:space="preserve">
<style type="text/css">
	.st0{fill:#FFFFFF;}
</style>
<g>
	<path class="st0" d="M20.8,50h-5.5l-4.4-34L6.4,50H0.9L8.4,0.8H11c1.1,0,1.8,0.3,2.1,0.8c0.3,0.6,0.5,1.2,0.6,1.8L20.8,50z"/>
	<path class="st0" d="M53.7,0.8L46.2,50H44h-0.4c-0.6,0-1.1-0.2-1.5-0.5c-0.4-0.3-0.7-0.7-0.9-1.1c-0.2-0.4-0.4-0.8-0.4-1.2
		c-0.1-0.4-0.1-0.6-0.1-0.7L33.6,0.8h3.9c0.2,0,0.5,0.1,0.8,0.3c0.3,0.2,0.6,0.7,0.7,1.5l4.7,30.9l5-32.8H53.7z"/>
	<path class="st0" d="M86.6,50H81l-4.4-34l-4.5,34h-5.5l7.5-49.2h2.7c1.1,0,1.8,0.3,2.1,0.8c0.3,0.6,0.5,1.2,0.6,1.8L86.6,50z"/>
	<path class="st0" d="M120.1,0.8V50h-2.3c-0.7,0-1.2-0.1-1.7-0.4c-0.4-0.2-0.8-0.5-1-0.9c-0.2-0.3-0.4-0.7-0.5-1
		c-0.1-0.4-0.2-0.7-0.3-0.9l-5.4-24.3V50h-5V0.8h2.3c1.4,0,2.4,0.3,2.8,0.8c0.4,0.6,0.7,1.2,0.8,1.9l5.3,25.6V0.8H120.1z"/>
	<path class="st0" d="M159.1,0.8c-0.3,0.6-0.6,1.4-1,2.2c-0.4,0.8-0.6,1.3-0.7,1.5c-0.1,0.3-0.4,0.7-0.8,1c-0.4,0.3-1,0.4-1.8,0.4
		h-4c-0.4,0-0.7,0.1-0.9,0.4c-0.2,0.2-0.3,0.5-0.3,0.9v43h-3.9c-0.6,0-0.9-0.1-1.1-0.4s-0.3-0.5-0.3-0.7V5.8h-7.1V2.3
		c0-0.4,0.1-0.8,0.4-1.1c0.3-0.3,0.6-0.4,1.1-0.4H159.1z"/>
	<path class="st0" d="M178.1,1.4c0.3,0.5,0.4,0.9,0.4,1.3V50h-3.6c-0.6,0-0.9-0.1-1.1-0.4c-0.2-0.2-0.3-0.5-0.3-0.7V0.8h3
		C177.2,0.8,177.8,1,178.1,1.4z"/>
</g>
</svg>
