<?xml version="1.0" encoding="utf-8"?>
<!-- Generator: Adobe Illustrator 18.0.0, SVG Export Plug-In . SVG Version: 6.00 Build 0)  -->
<!DOCTYPE svg PUBLIC "-//W3C//DTD SVG 1.1//EN" "http://www.w3.org/Graphics/SVG/1.1/DTD/svg11.dtd">
<svg version="1.1" id="Capa_1" xmlns="http://www.w3.org/2000/svg" xmlns:xlink="http://www.w3.org/1999/xlink" x="0px" y="0px"
	 viewBox="0 0 469.1 136.9" enable-background="new 0 0 469.1 136.9" xml:space="preserve">
<g>
	<g>
		<g>
			<path fill="#231F20" d="M175,46.1c-3.9-1.1-6.3-2-7-2.4c-1.7-1-2.6-2.2-2.6-3.6c0-1.4,0.7-2.6,2-3.4c1.2-0.8,2.5-1.1,4-1.1
				c3.1,0,6.1,1.2,9.2,3.6l5.5-10.8c-5.5-2.9-11.1-4.3-16.9-4.3c-5.7,0-10.3,1.9-13.7,5.7c-2.9,3.2-4.4,7.3-4.4,12.3
				c0,4.7,1.4,8.3,4.3,10.6c1,0.8,2.2,1.5,3.6,2.1c0.9,0.4,3,1.1,6.5,2.1c2.8,0.8,4.9,1.6,6.1,2.4c1.6,1.1,2.4,2.4,2.4,3.9
				c0,1.7-0.7,3.1-2.2,4c-1.3,0.8-2.8,1.3-4.6,1.3c-4,0-8.1-1.9-12.2-5.7l-5.9,11.2c5.7,4,11.9,6,18.5,6c3.2,0,6.1-0.5,8.9-1.4
				c7.9-2.7,11.9-8.6,11.9-17.6c0-3.5-0.9-6.4-2.7-8.6C183.4,49.6,179.9,47.6,175,46.1z"/>
			<path fill="#231F20" d="M234,30.7c-3.3-3.7-8-5.5-14.3-5.5h-22v53.3h13.9V60.8h8.7c6.8,0,11.7-2,14.6-6.1
				c2.3-3.1,3.4-7.1,3.4-11.9C238.2,37.9,236.8,33.9,234,30.7z M222.3,47.7c-1.1,1.3-3.2,2-6.2,2h-4.6V36.4h4.7
				c2.8,0,4.8,0.6,5.9,1.8c1.2,1.2,1.7,2.8,1.7,4.8C223.9,44.9,223.4,46.5,222.3,47.7z"/>
			<path fill="#231F20" d="M302.9,52c0-7.3-2.4-13.6-7.2-19.1c-5.5-6.2-12.9-9.3-22.3-9.3c-9.4,0-16.8,3.1-22.3,9.3
				c-2.2,2.5-3.9,5.4-5.2,8.9c-1.3,3.5-1.9,6.9-1.9,10.2c0,7.2,2.4,13.6,7.2,19c5.5,6.2,12.9,9.3,22.2,9.3c9.4,0,16.8-3.1,22.3-9.3
				C300.5,65.6,302.9,59.3,302.9,52z M284.9,61.7c-3,3.5-6.8,5.2-11.5,5.2c-4.7,0-8.5-1.8-11.5-5.3c-2.4-2.8-3.6-6.1-3.6-9.7
				c0-1.7,0.3-3.5,0.9-5.2c1.1-3,2.9-5.4,5.5-7.1c2.6-1.8,5.5-2.7,8.6-2.7c4.6,0,8.5,1.7,11.5,5.2c2.4,2.7,3.6,6,3.6,9.7
				C288.5,55.7,287.3,59,284.9,61.7z"/>
			<polygon fill="#231F20" points="350.1,57.8 324.6,25.2 310.7,25.2 310.7,78.5 324.6,78.5 324.6,45.9 350.1,78.5 363.9,78.5 
				363.9,25.2 350.1,25.2 			"/>
			<path fill="#231F20" d="M401.9,59.5h11.4c-0.4,2.6-1.3,4.6-2.7,6c-2.1,2-4.9,3.1-8.4,3.1c-4,0-7.1-1.3-9.5-3.8
				c-3.2-3.4-4.8-7.6-4.8-12.7c0-2.4,0.4-4.8,1.3-7.1c2.4-6.2,6.6-9.3,12.6-9.3c2.9,0,5.5,0.9,7.6,2.6c1.5,1.2,2.8,3.1,3.9,5.6
				l13.1-5.4c-2.2-4.5-4.9-7.9-8-10.1c-4.4-3.2-9.7-4.8-16-4.8c-9.4,0-16.8,3-22,9c-4.6,5.3-6.9,11.8-6.9,19.6c0,7,2,13,5.9,18.1
				c5.2,6.7,12.7,10,22.5,10c6,0,11.2-1.4,15.6-4.3c4.6-3,7.8-7.3,9.8-12.8c1.3-3.6,1.9-8.4,1.9-14.1h-27.5V59.5z"/>
			<polygon fill="#231F20" points="469.1,36.8 469.1,25.2 438.8,25.2 438.8,78.5 469.1,78.5 469.1,66.9 452.7,66.9 452.7,57.4 
				468.2,57.4 468.2,45.9 452.7,45.9 452.7,36.8 			"/>
		</g>
		
			<text transform="matrix(1 0 0 1 147.5247 108.9558)" fill="#231F20" font-family="'Geometria-Bold'" font-size="16.436" letter-spacing="1">DIGITAL AND DESIGN</text>
	</g>
	<path fill="#231F20" d="M118.4,79l-0.2-0.1c-0.2-0.1-3.8-1.5-8.1,0c-5.9,2.1-10.4,2.3-13,0.5L97,79.4c-0.3-0.2-0.8-0.2-1.1,0.1
		l-2.2,2.1c0,0,0,0,0,0l-2,1.9l-22-60.1c0,0,0,0,0,0l-1-2.7c2.1-2.2,3.4-5.1,3.4-8.4C72.2,5.4,66.7,0,60.1,0
		c-6.7,0-12.1,5.4-12.1,12.1c0,2.9,1,5.5,2.7,7.6l-6.3,17.4l0,0l-17,46.5l-2-1.9l0,0l-1.7-1.6l0,0l0,0l-0.5-0.5
		c-0.3-0.3-0.8-0.4-1.2-0.1c-2.7,1.7-7.2,1.6-13-0.5c-4.2-1.5-7.9,0-8.1,0l0,0c-0.7,0.3-0.8,1.1-0.3,1.6l3.3,3.1h0l4.7,4.6l0.2,0.2
		l1.1,1.1l0,0l11.4,11L17,111.7c-0.3,0.8,0.9,1.3,1.3,0.5c0-0.1,0.1-0.2,0.1-0.3l4.4-9.7l6.8,6.6l0,0l28.6,27.6
		c0.6,0.6,1.7,0.6,2.3,0l19.9-19.2L96.3,102l5.4,11.8c0,0.1,0.1,0.2,0.1,0.3c0.3,0.7,1.4,0.3,1.1-0.5l-0.5-1.4L98,100.3l8.7-8.4
		l2.7-2.6h0l0.9-0.9h0l4.1-3.9h0l0.9-0.9h0l3.2-3.1l0.2-0.2C119.1,80,119,79.2,118.4,79z M60.5,112.7c-0.6,0.6-1.6,0.6-2.3,0
		L43.6,98.9l0,0l-0.3-0.2l-10.2-9.5c0,0,0,0,0,0l-3-2.8c2.2-4.8,4-8.8,5-11c1.3-2.9,3-5.1,4.8-6.8c0,0,0,0,0,0
		c1.1-0.9,2-1.6,2.8-2.3c0,0,0,0,0,0c2.7-1.8,5.2-2.6,6.1-2.8c0.2-0.1,0.4-0.2,0.5-0.4l8-22.3l0,0c0-0.1,1.1-2.8,2.2-5.6l10.1,28
		c0.1,0.2,0.2,0.3,0.4,0.4c1.7,0.4,9.8,3,13.9,12c1,2.2,2.8,6.1,4.9,10.8l-3.1,2.9l0,0l-8.2,7.7l-0.3,0.3l0,0L60.5,112.7z"/>
</g>
</svg>
