<?xml version="1.0" encoding="utf-8"?>
<!-- Generator: Adobe Illustrator 18.0.0, SVG Export Plug-In . SVG Version: 6.00 Build 0)  -->
<!DOCTYPE svg PUBLIC "-//W3C//DTD SVG 1.1//EN" "http://www.w3.org/Graphics/SVG/1.1/DTD/svg11.dtd">
<svg version="1.1" id="Capa_1" xmlns="http://www.w3.org/2000/svg" xmlns:xlink="http://www.w3.org/1999/xlink" x="0px" y="0px"
	 viewBox="0 0 32.7 32.7" enable-background="new 0 0 32.7 32.7" xml:space="preserve">
<g>
	<path d="M10.1,18.8c0.7,1,1.6,1.9,2.7,2.5c1.2,0.7,2.6,0.9,4,0.9c0.7,0,0.9-0.2,0.9-0.9c0-0.5,0.1-0.9,0.3-1.3
		c0.2-0.4,0.5-0.5,0.9-0.2c0.2,0.1,0.4,0.3,0.5,0.4c0.4,0.4,0.7,0.8,1.1,1.2c0.5,0.5,1.1,0.8,1.8,0.7l2.8,0c0.4,0,0.7-0.6,0.4-1.1
		c-0.2-0.4-0.4-0.7-0.7-1c-0.6-0.7-1.2-1.3-1.9-1.9c-0.6-0.6-0.6-0.9-0.1-1.5c0.5-0.7,1-1.4,1.6-2.1c0.5-0.7,1-1.3,1.2-2.1
		c0.2-0.5,0-0.7-0.5-0.8c-0.1,0-0.2,0-0.3,0l-3,0c-0.4,0-0.6,0.2-0.7,0.5c-0.2,0.4-0.4,0.9-0.6,1.3c-0.5,1-1,1.9-1.8,2.7
		c-0.2,0.2-0.4,0.4-0.6,0.3c-0.3-0.1-0.5-0.7-0.4-0.9l0-3.5c-0.1-0.5-0.2-0.7-0.7-0.8l-3.2,0c-0.4,0-0.6,0.2-0.9,0.4
		C12.8,11.9,12.8,12,13,12c0.5,0.1,0.8,0.4,0.9,1c0.1,0.8,0.1,1.7,0,2.5c0,0.2-0.1,0.5-0.2,0.7c-0.2,0.4-0.4,0.4-0.7,0.2
		c-0.3-0.2-0.5-0.5-0.7-0.8c-0.8-1.1-1.4-2.2-1.9-3.4c-0.1-0.3-0.4-0.6-0.8-0.6c-0.9,0-1.8,0-2.7,0c-0.5,0-0.7,0.3-0.5,0.8
		C7.5,14.7,8.6,16.8,10.1,18.8z"/>
	<path d="M0,0v32.7h32.7V0H0z M31.7,31.7H1V1h30.7V31.7z"/>
</g>
</svg>
